<svg xmlns="http://www.w3.org/2000/svg" xmlns:xlink="http://www.w3.org/1999/xlink" style="display: none;">
  
    <symbol id="search" viewBox="0 0 475.084 475.084" style="enable-background:new 0 0 475.084 475.084;" xml:space="preserve" x="0px" y="0px">
        <path d="M464.524,412.846l-97.929-97.925c23.6-34.068,35.406-72.047,35.406-113.917c0-27.218-5.284-53.249-15.852-78.087   c-10.561-24.842-24.838-46.254-42.825-64.241c-17.987-17.987-39.396-32.264-64.233-42.826   C254.246,5.285,228.217,0.003,200.999,0.003c-27.216,0-53.247,5.282-78.085,15.847C98.072,26.412,76.66,40.689,58.673,58.676   c-17.989,17.987-32.264,39.403-42.827,64.241C5.282,147.758,0,173.786,0,201.004c0,27.216,5.282,53.238,15.846,78.083   c10.562,24.838,24.838,46.247,42.827,64.234c17.987,17.993,39.403,32.264,64.241,42.832c24.841,10.563,50.869,15.844,78.085,15.844   c41.879,0,79.852-11.807,113.922-35.405l97.929,97.641c6.852,7.231,15.406,10.849,25.693,10.849   c9.897,0,18.467-3.617,25.694-10.849c7.23-7.23,10.848-15.796,10.848-25.693C475.088,428.458,471.567,419.889,464.524,412.846z    M291.363,291.358c-25.029,25.033-55.148,37.549-90.364,37.549c-35.21,0-65.329-12.519-90.36-37.549   c-25.031-25.029-37.546-55.144-37.546-90.36c0-35.21,12.518-65.334,37.546-90.36c25.026-25.032,55.15-37.546,90.36-37.546   c35.212,0,65.331,12.519,90.364,37.546c25.033,25.026,37.548,55.15,37.548,90.36C328.911,236.214,316.392,266.329,291.363,291.358z   "/>
    </symbol>
  
    <symbol id="star" viewBox="0 0 53.867 53.867">
        <polygon points="26.934,1.318 35.256,18.182 53.867,20.887 40.4,34.013 43.579,52.549 26.934,43.798 
	10.288,52.549 13.467,34.013 0,20.887 18.611,18.182 "/>

    </symbol>

    <symbol id="gear" viewBox="0 0 54 54">
        <path d="M51.22,21h-5.052c-0.812,0-1.481-0.447-1.792-1.197s-0.153-1.54,0.42-2.114l3.572-3.571   c0.525-0.525,0.814-1.224,0.814-1.966c0-0.743-0.289-1.441-0.814-1.967l-4.553-4.553c-1.05-1.05-2.881-1.052-3.933,0l-3.571,3.571   c-0.574,0.573-1.366,0.733-2.114,0.421C33.447,9.313,33,8.644,33,7.832V2.78C33,1.247,31.753,0,30.22,0H23.78   C22.247,0,21,1.247,21,2.78v5.052c0,0.812-0.447,1.481-1.197,1.792c-0.748,0.313-1.54,0.152-2.114-0.421l-3.571-3.571   c-1.052-1.052-2.883-1.05-3.933,0l-4.553,4.553c-0.525,0.525-0.814,1.224-0.814,1.967c0,0.742,0.289,1.44,0.814,1.966l3.572,3.571   c0.573,0.574,0.73,1.364,0.42,2.114S8.644,21,7.832,21H2.78C1.247,21,0,22.247,0,23.78v6.439C0,31.753,1.247,33,2.78,33h5.052   c0.812,0,1.481,0.447,1.792,1.197s0.153,1.54-0.42,2.114l-3.572,3.571c-0.525,0.525-0.814,1.224-0.814,1.966   c0,0.743,0.289,1.441,0.814,1.967l4.553,4.553c1.051,1.051,2.881,1.053,3.933,0l3.571-3.572c0.574-0.573,1.363-0.731,2.114-0.42   c0.75,0.311,1.197,0.98,1.197,1.792v5.052c0,1.533,1.247,2.78,2.78,2.78h6.439c1.533,0,2.78-1.247,2.78-2.78v-5.052   c0-0.812,0.447-1.481,1.197-1.792c0.751-0.312,1.54-0.153,2.114,0.42l3.571,3.572c1.052,1.052,2.883,1.05,3.933,0l4.553-4.553   c0.525-0.525,0.814-1.224,0.814-1.967c0-0.742-0.289-1.44-0.814-1.966l-3.572-3.571c-0.573-0.574-0.73-1.364-0.42-2.114   S45.356,33,46.168,33h5.052c1.533,0,2.78-1.247,2.78-2.78V23.78C54,22.247,52.753,21,51.22,21z M52,30.22   C52,30.65,51.65,31,51.22,31h-5.052c-1.624,0-3.019,0.932-3.64,2.432c-0.622,1.5-0.295,3.146,0.854,4.294l3.572,3.571   c0.305,0.305,0.305,0.8,0,1.104l-4.553,4.553c-0.304,0.304-0.799,0.306-1.104,0l-3.571-3.572c-1.149-1.149-2.794-1.474-4.294-0.854   c-1.5,0.621-2.432,2.016-2.432,3.64v5.052C31,51.65,30.65,52,30.22,52H23.78C23.35,52,23,51.65,23,51.22v-5.052   c0-1.624-0.932-3.019-2.432-3.64c-0.503-0.209-1.021-0.311-1.533-0.311c-1.014,0-1.997,0.4-2.761,1.164l-3.571,3.572   c-0.306,0.306-0.801,0.304-1.104,0l-4.553-4.553c-0.305-0.305-0.305-0.8,0-1.104l3.572-3.571c1.148-1.148,1.476-2.794,0.854-4.294   C10.851,31.932,9.456,31,7.832,31H2.78C2.35,31,2,30.65,2,30.22V23.78C2,23.35,2.35,23,2.78,23h5.052   c1.624,0,3.019-0.932,3.64-2.432c0.622-1.5,0.295-3.146-0.854-4.294l-3.572-3.571c-0.305-0.305-0.305-0.8,0-1.104l4.553-4.553   c0.304-0.305,0.799-0.305,1.104,0l3.571,3.571c1.147,1.147,2.792,1.476,4.294,0.854C22.068,10.851,23,9.456,23,7.832V2.78   C23,2.35,23.35,2,23.78,2h6.439C30.65,2,31,2.35,31,2.78v5.052c0,1.624,0.932,3.019,2.432,3.64   c1.502,0.622,3.146,0.294,4.294-0.854l3.571-3.571c0.306-0.305,0.801-0.305,1.104,0l4.553,4.553c0.305,0.305,0.305,0.8,0,1.104   l-3.572,3.571c-1.148,1.148-1.476,2.794-0.854,4.294c0.621,1.5,2.016,2.432,3.64,2.432h5.052C51.65,23,52,23.35,52,23.78V30.22z" />
        <path d="M27,18c-4.963,0-9,4.037-9,9s4.037,9,9,9s9-4.037,9-9S31.963,18,27,18z M27,34c-3.859,0-7-3.141-7-7s3.141-7,7-7   s7,3.141,7,7S30.859,34,27,34z" />
    </symbol>

    <symbol id="plus" viewBox="0 0 42 42">
        <polygon points="42,20 22,20 22,0 20,0 20,20 0,20 0,22 20,22 20,42 22,42 22,22 42,22 " />
    </symbol>

    <symbol id="calendar" viewBox="0 0 32 32">
        <path d="M29.334,3H25V1c0-0.553-0.447-1-1-1s-1,0.447-1,1v2h-6V1c0-0.553-0.448-1-1-1s-1,0.447-1,1v2H9V1    c0-0.553-0.448-1-1-1S7,0.447,7,1v2H2.667C1.194,3,0,4.193,0,5.666v23.667C0,30.806,1.194,32,2.667,32h26.667    C30.807,32,32,30.806,32,29.333V5.666C32,4.193,30.807,3,29.334,3z M30,29.333C30,29.701,29.701,30,29.334,30H2.667    C2.299,30,2,29.701,2,29.333V5.666C2,5.299,2.299,5,2.667,5H7v2c0,0.553,0.448,1,1,1s1-0.447,1-1V5h6v2c0,0.553,0.448,1,1,1    s1-0.447,1-1V5h6v2c0,0.553,0.447,1,1,1s1-0.447,1-1V5h4.334C29.701,5,30,5.299,30,5.666V29.333z"/>
        <rect x="7" y="12" width="4" height="3"/>
        <rect x="7" y="17" width="4" height="3"/>
        <rect x="7" y="22" width="4" height="3"/>
        <rect x="14" y="22" width="4" height="3"/>
        <rect x="14" y="17" width="4" height="3"/>
        <rect x="14" y="12" width="4" height="3"/>
        <rect x="21" y="22" width="4" height="3"/>
        <rect x="21" y="17" width="4" height="3"/>
        <rect x="21" y="12" width="4" height="3"/>
    </symbol>

    <symbol id="phone" viewBox="0 0 473.806 473.806">
        <path d="M374.456,293.506c-9.7-10.1-21.4-15.5-33.8-15.5c-12.3,0-24.1,5.3-34.2,15.4l-31.6,31.5c-2.6-1.4-5.2-2.7-7.7-4    c-3.6-1.8-7-3.5-9.9-5.3c-29.6-18.8-56.5-43.3-82.3-75c-12.5-15.8-20.9-29.1-27-42.6c8.2-7.5,15.8-15.3,23.2-22.8    c2.8-2.8,5.6-5.7,8.4-8.5c21-21,21-48.2,0-69.2l-27.3-27.3c-3.1-3.1-6.3-6.3-9.3-9.5c-6-6.2-12.3-12.6-18.8-18.6    c-9.7-9.6-21.3-14.7-33.5-14.7s-24,5.1-34,14.7c-0.1,0.1-0.1,0.1-0.2,0.2l-34,34.3c-12.8,12.8-20.1,28.4-21.7,46.5    c-2.4,29.2,6.2,56.4,12.8,74.2c16.2,43.7,40.4,84.2,76.5,127.6c43.8,52.3,96.5,93.6,156.7,122.7c23,10.9,53.7,23.8,88,26    c2.1,0.1,4.3,0.2,6.3,0.2c23.1,0,42.5-8.3,57.7-24.8c0.1-0.2,0.3-0.3,0.4-0.5c5.2-6.3,11.2-12,17.5-18.1c4.3-4.1,8.7-8.4,13-12.9    c9.9-10.3,15.1-22.3,15.1-34.6c0-12.4-5.3-24.3-15.4-34.3L374.456,293.506z M410.256,398.806    C410.156,398.806,410.156,398.906,410.256,398.806c-3.9,4.2-7.9,8-12.2,12.2c-6.5,6.2-13.1,12.7-19.3,20    c-10.1,10.8-22,15.9-37.6,15.9c-1.5,0-3.1,0-4.6-0.1c-29.7-1.9-57.3-13.5-78-23.4c-56.6-27.4-106.3-66.3-147.6-115.6    c-34.1-41.1-56.9-79.1-72-119.9c-9.3-24.9-12.7-44.3-11.2-62.6c1-11.7,5.5-21.4,13.8-29.7l34.1-34.1c4.9-4.6,10.1-7.1,15.2-7.1    c6.3,0,11.4,3.8,14.6,7c0.1,0.1,0.2,0.2,0.3,0.3c6.1,5.7,11.9,11.6,18,17.9c3.1,3.2,6.3,6.4,9.5,9.7l27.3,27.3    c10.6,10.6,10.6,20.4,0,31c-2.9,2.9-5.7,5.8-8.6,8.6c-8.4,8.6-16.4,16.6-25.1,24.4c-0.2,0.2-0.4,0.3-0.5,0.5    c-8.6,8.6-7,17-5.2,22.7c0.1,0.3,0.2,0.6,0.3,0.9c7.1,17.2,17.1,33.4,32.3,52.7l0.1,0.1c27.6,34,56.7,60.5,88.8,80.8    c4.1,2.6,8.3,4.7,12.3,6.7c3.6,1.8,7,3.5,9.9,5.3c0.4,0.2,0.8,0.5,1.2,0.7c3.4,1.7,6.6,2.5,9.9,2.5c8.3,0,13.5-5.2,15.2-6.9    l34.2-34.2c3.4-3.4,8.8-7.5,15.1-7.5c6.2,0,11.3,3.9,14.4,7.3c0.1,0.1,0.1,0.1,0.2,0.2l55.1,55.1    C420.456,377.706,420.456,388.206,410.256,398.806z"/>
        <path d="M256.056,112.706c26.2,4.4,50,16.8,69,35.8s31.3,42.8,35.8,69c1.1,6.6,6.8,11.2,13.3,11.2c0.8,0,1.5-0.1,2.3-0.2    c7.4-1.2,12.3-8.2,11.1-15.6c-5.4-31.7-20.4-60.6-43.3-83.5s-51.8-37.9-83.5-43.3c-7.4-1.2-14.3,3.7-15.6,11    S248.656,111.506,256.056,112.706z"/>
        <path d="M473.256,209.006c-8.9-52.2-33.5-99.7-71.3-137.5s-85.3-62.4-137.5-71.3c-7.3-1.3-14.2,3.7-15.5,11    c-1.2,7.4,3.7,14.3,11.1,15.6c46.6,7.9,89.1,30,122.9,63.7c33.8,33.8,55.8,76.3,63.7,122.9c1.1,6.6,6.8,11.2,13.3,11.2    c0.8,0,1.5-0.1,2.3-0.2C469.556,223.306,474.556,216.306,473.256,209.006z"/>
    </symbol>

    <symbol id="arrow" viewBox="0 0 386.257 386.257">
        <polygon points="0,96.879 193.129,289.379 386.257,96.879 "/>
    </symbol>

    <symbol id="mail" viewBox="0 0 485.411 485.411">
        <path d="M0,81.824v321.763h485.411V81.824H0z M242.708,280.526L43.612,105.691h398.187L242.708,280.526z    M163.397,242.649L23.867,365.178V120.119L163.397,242.649z M181.482,258.533l61.22,53.762l61.22-53.762L441.924,379.72H43.487   L181.482,258.533z M322.008,242.655l139.535-122.536v245.059L322.008,242.655z"/>
    </symbol>

    <symbol id="check" viewBox="0 0 561 561">
        <path d="M459,0H102C73.95,0,51,22.95,51,51v328.95c0,17.85,7.65,33.149,22.95,43.35L280.5,561l206.55-137.7    C499.8,413.1,510,397.8,510,379.95V51C510,22.95,487.05,0,459,0z M229.5,382.5L102,255l35.7-35.7l91.8,91.8l193.8-193.8L459,153    L229.5,382.5z"/>
    </symbol>

    <symbol id="wifi" viewBox="0 0 611.989 611.988">
        <path d="M305.994,417.769c-30.85,0-55.887,25.037-55.887,55.887s25.038,55.887,55.887,55.887s55.887-25.037,55.887-55.887     S336.843,417.769,305.994,417.769z M605.436,222.369C530.697,133.434,421.549,82.446,305.994,82.446     S81.309,133.434,6.551,222.369c-9.93,11.811-8.402,29.434,3.428,39.363c5.234,4.396,11.587,6.558,17.939,6.558     c7.973,0,15.891-3.391,21.423-9.967c64.084-76.248,157.639-119.989,256.652-119.989c99.013,0,192.568,43.741,256.651,119.971     c5.533,6.576,13.45,9.967,21.424,9.967c6.353,0,12.724-2.143,17.958-6.558C613.837,251.802,615.366,234.161,605.436,222.369z      M305.994,194.22c-82.545,0-160.489,36.419-213.879,99.926c-9.929,11.811-8.402,29.434,3.428,39.363     c5.234,4.396,11.605,6.558,17.958,6.558c7.973,0,15.891-3.391,21.405-9.967c42.716-50.838,105.086-79.993,171.089-79.993     c66.003,0,128.372,29.155,171.107,79.993c5.533,6.595,13.45,9.967,21.404,9.967c6.353,0,12.724-2.143,17.959-6.558     c11.829-9.929,13.356-27.57,3.428-39.363C466.483,230.64,388.539,194.22,305.994,194.22z M305.994,305.994     c-49.553,0-96.331,21.852-128.335,59.948c-9.93,11.811-8.402,29.434,3.428,39.363c5.234,4.396,11.605,6.557,17.958,6.557     c7.973,0,15.891-3.39,21.405-9.966c21.368-25.429,52.552-40.016,85.544-40.016s64.177,14.587,85.544,40.016     c5.533,6.595,13.45,9.966,21.405,9.966c6.353,0,12.724-2.142,17.958-6.557c11.83-9.93,13.357-27.553,3.428-39.363     C402.324,327.846,355.546,305.994,305.994,305.994z" />
    </symbol>

    <symbol id="tv" viewBox="0 0 612 612">
        <path d="M578.766,51.487v-0.895h-2.996H35.93h-2.996v0.895C15.272,52.701,2.095,66.753,0,83.808v3.002v355.724   c0,6.898,1.795,12.712,4.791,17.949c6.893,12.137,17.068,18.269,31.14,18.269h197.012v49.695h-37.425   c-9.281,0-16.467,7.218-16.467,16.48c0,9.262,7.186,16.479,16.467,16.479h220.666c9.281,0,16.768-7.218,16.768-16.479   c0-9.263-7.486-16.48-16.768-16.48h-37.425v-49.695H575.77c14.078,0,24.343-6.132,31.14-18.269   c3.085-5.493,5.091-11.37,5.091-17.949V86.811v-3.002C609.905,66.753,595.833,52.701,578.766,51.487z M578.766,86.811v355.724   c0,2.108-0.895,3.002-2.996,3.002H35.93c-2.095,0-2.996-0.894-2.996-3.002V86.811v-3.002h545.831V86.811z"/>
    </symbol>

    <symbol id="safe" viewBox="0 0 442 442">
        <path d="M432,0H10C4.477,0,0,4.478,0,10v422c0,5.522,4.477,10,10,10h422c5.523,0,10-4.478,10-10V10C442,4.478,437.523,0,432,0z    M422,422H20V20h402V422z"/>
        <path d="M273.901,148.188c-0.202-0.147-0.411-0.275-0.62-0.404C258.534,137.224,240.481,131,221,131s-37.534,6.224-52.281,16.784   c-0.209,0.129-0.418,0.258-0.62,0.404c-0.22,0.16-0.424,0.332-0.627,0.506C145.359,165.108,131,191.408,131,221   c0,49.626,40.374,90,90,90s90-40.374,90-90c0-29.592-14.359-55.892-36.472-72.306C274.325,148.521,274.121,148.348,273.901,148.188   z M221,251c-16.542,0-30-13.458-30-30s13.458-30,30-30s30,13.458,30,30S237.542,251,221,251z M253.618,159.092l-11.923,16.411   C235.384,172.62,228.38,171,221,171s-14.384,1.62-20.695,4.502l-11.923-16.411C198.129,153.935,209.226,151,221,151   S243.871,153.935,253.618,159.092z M172.216,170.868l11.914,16.399C175.981,196.166,171,208.011,171,221   c0,1.903,0.117,3.777,0.325,5.625l-19.293,6.269C151.366,229.026,151,225.056,151,221C151,201.359,159.143,183.593,172.216,170.868   z M158.218,251.914l19.303-6.272c7.024,12.344,19.14,21.429,33.479,24.352v20.281C187.799,286.94,168.243,272.191,158.218,251.914z    M231,290.274v-20.281c14.339-2.923,26.456-12.008,33.479-24.352l19.303,6.272C273.757,272.191,254.201,286.94,231,290.274z    M291,221c0,4.056-0.366,8.026-1.032,11.895l-19.293-6.269c0.208-1.848,0.325-3.723,0.325-5.625   c0-12.989-4.981-24.834-13.13-33.733l11.914-16.399C282.857,183.593,291,201.359,291,221z"/>
        <path d="M50,349.997V382c0,5.522,4.477,10,10,10h322c5.523,0,10-4.478,10-10V154.111c0-5.522-4.477-10-10-10s-10,4.478-10,10V372   H70v-22.003c9.387-3.926,16-13.202,16-23.997v-50c0-10.795-6.613-20.071-16-23.997v-62.005c9.387-3.926,16-13.203,16-23.997v-50   c0-10.795-6.613-20.071-16-23.997V70h302v50c0,5.522,4.477,10,10,10s10-4.478,10-10V60c0-5.522-4.477-10-10-10H60   c-5.523,0-10,4.478-10,10v32.003C40.613,95.929,34,105.205,34,116v50c0,10.795,6.613,20.071,16,23.997v62.005   c-9.387,3.926-16,13.203-16,23.997v50C34,336.795,40.613,346.071,50,349.997z M66,276v50c0,3.309-2.691,6-6,6s-6-2.691-6-6v-50   c0-3.309,2.691-6,6-6S66,272.691,66,276z M54,166v-50c0-3.309,2.691-6,6-6s6,2.691,6,6v50c0,3.309-2.691,6-6,6S54,169.309,54,166z"/>
    </symbol>

    <symbol id="close" viewBox="0 0 21.9 21.9">
       <path d="M14.1,11.3c-0.2-0.2-0.2-0.5,0-0.7l7.5-7.5c0.2-0.2,0.3-0.5,0.3-0.7s-0.1-0.5-0.3-0.7l-1.4-1.4C20,0.1,19.7,0,19.5,0  c-0.3,0-0.5,0.1-0.7,0.3l-7.5,7.5c-0.2,0.2-0.5,0.2-0.7,0L3.1,0.3C2.9,0.1,2.6,0,2.4,0S1.9,0.1,1.7,0.3L0.3,1.7C0.1,1.9,0,2.2,0,2.4  s0.1,0.5,0.3,0.7l7.5,7.5c0.2,0.2,0.2,0.5,0,0.7l-7.5,7.5C0.1,19,0,19.3,0,19.5s0.1,0.5,0.3,0.7l1.4,1.4c0.2,0.2,0.5,0.3,0.7,0.3  s0.5-0.1,0.7-0.3l7.5-7.5c0.2-0.2,0.5-0.2,0.7,0l7.5,7.5c0.2,0.2,0.5,0.3,0.7,0.3s0.5-0.1,0.7-0.3l1.4-1.4c0.2-0.2,0.3-0.5,0.3-0.7  s-0.1-0.5-0.3-0.7L14.1,11.3z"/>
    </symbol>

    <symbol id="menu" viewBox="0 0 24 24">
        <path d="M24,3c0-0.6-0.4-1-1-1H1C0.4,2,0,2.4,0,3v2c0,0.6,0.4,1,1,1h22c0.6,0,1-0.4,1-1V3z"/>
        <path d="M24,11c0-0.6-0.4-1-1-1H1c-0.6,0-1,0.4-1,1v2c0,0.6,0.4,1,1,1h22c0.6,0,1-0.4,1-1V11z"/>
        <path d="M24,19c0-0.6-0.4-1-1-1H1c-0.6,0-1,0.4-1,1v2c0,0.6,0.4,1,1,1h22c0.6,0,1-0.4,1-1V19z"/>
    </symbol>

    <symbol id="clock" viewBox="0 0 612 612">
        <path d="M587.572,186.881c-32.266-75.225-87.096-129.934-162.949-162.285C386.711,8.427,346.992,0.168,305.497,0.168    c-41.488,0-80.914,8.181-118.784,24.428C111.488,56.861,56.415,111.535,24.092,186.881C7.895,224.629,0,264.176,0,305.664    c0,41.496,7.895,81.371,24.092,119.127c32.323,75.346,87.403,130.348,162.621,162.621c37.877,16.247,77.295,24.42,118.784,24.42    c41.489,0,81.214-8.259,119.12-24.42c75.853-32.352,130.683-87.403,162.956-162.621C603.819,386.914,612,347.16,612,305.664    C612,264.176,603.826,224.757,587.572,186.881z M538.724,440.853c-24.021,41.195-56.929,73.876-98.375,98.039    c-41.195,24.021-86.332,36.135-134.845,36.135c-36.47,0-71.27-7.024-104.4-21.415c-33.129-14.384-61.733-33.294-85.661-57.215    c-23.928-23.928-42.973-52.811-57.214-85.997c-14.199-33.065-21.08-68.258-21.08-104.735c0-48.52,11.921-93.428,35.807-134.509    c23.971-41.231,56.886-73.947,98.039-98.04c41.146-24.092,85.99-36.142,134.502-36.142c48.52,0,93.649,12.121,134.845,36.142    c41.446,24.164,74.283,56.879,98.375,98.039c24.092,41.153,36.135,85.99,36.135,134.509    C574.852,354.185,562.888,399.399,538.724,440.853z"/>
        <path d="M324.906,302.988V129.659c0-10.372-9.037-18.738-19.41-18.738c-9.701,0-18.403,8.366-18.403,18.738v176.005    c0,0.336,0.671,1.678,0.671,2.678c-0.671,6.024,1.007,11.043,5.019,15.062l100.053,100.046c6.695,6.695,19.073,6.695,25.763,0    c7.694-7.695,7.188-18.86,0-26.099L324.906,302.988z"/>
    </symbol>

    <symbol id="pencil" viewBox="0 0 300 300">
        <path d="M149.996,0C67.157,0,0.001,67.161,0.001,149.997S67.157,300,149.996,300s150.003-67.163,150.003-150.003    S232.835,0,149.996,0z M221.302,107.945l-14.247,14.247l-29.001-28.999l-11.002,11.002l29.001,29.001l-71.132,71.126    l-28.999-28.996L84.92,186.328l28.999,28.999l-7.088,7.088l-0.135-0.135c-0.786,1.294-2.064,2.238-3.582,2.575l-27.043,6.03    c-0.405,0.091-0.817,0.135-1.224,0.135c-1.476,0-2.91-0.581-3.973-1.647c-1.364-1.359-1.932-3.322-1.512-5.203l6.027-27.035    c0.34-1.517,1.286-2.798,2.578-3.582l-0.137-0.137L192.3,78.941c1.678-1.675,4.404-1.675,6.082,0.005l22.922,22.917    C222.982,103.541,222.982,106.267,221.302,107.945z"/>
    </symbol>

    <symbol id="box" viewBox="0 0 551.852 551.852">
        <path d="M545.933,106.575l0.377-0.999L276.049,0L6.228,106.671l-0.881-0.35v0.684l-0.038,0.021l0.038,0.115v338.651
        l270.579,106.059l270.617-106.064V106.326L545.933,106.575z M275.797,20.755l91.666,32.829L117.578,150.6l-84.647-33.39
        L275.797,20.755z M266.281,527.927L164.94,487.013l-50.859-19.107l-89.396-35.267V134.737l88.499,34.909v74.49l7.887-2.202
        l5.33,7.324l7.421-1.732l7.187,7.592l6.272-2.161l10.125,10.041v-75.911l7.877,3.11l100.999,39.834V527.927L266.281,527.927z
         M275.948,213.077l-98.808-38.983L420.832,75.33l100.504,40.944L275.948,213.077z M527.218,432.639l-241.612,95.288V230.032
        l241.589-95.301v297.901L527.218,432.639L527.218,432.639z"/>
    </symbol>
  
    <symbol id="car" viewBox="0 0 538.043 538.043">
        <path d="M526.745,312.866h-15.005c-3.706-18.736-10.307-44.359-20.792-57.941c-49.022-63.573-110.574-97.697-187.945-97.697
        c-50.134,0-82.787,4.902-99.789,14.981c-2.295,1.363-9.063,5.369-27.344,42.135c-26.687,0.419-97.278,5.261-131.127,43.414
        c-16.99,19.143-23.746,39.719-26.352,55.096h-7.078C5.058,312.854,0,317.924,0,324.177c0,6.241,5.058,11.323,11.311,11.323h5.655
        c0.048,0.61,0.096,1.076,0.108,1.219c0.598,5.739,5.464,10.115,11.239,10.115h14.252c8.752,19.968,28.66,33.981,51.831,33.981
        s43.079-14.013,51.855-33.981h215.982c8.74,19.968,28.66,33.981,51.832,33.981c23.172,0,43.091-14.013,51.832-33.981h38.165
        c0.084,0,0.155,0,0.215,0c6.253,0,11.335-5.07,11.335-11.323h11.131c6.241,0,11.299-5.081,11.299-11.323
        C538.044,317.924,532.986,312.866,526.745,312.866z M94.397,358.169c-18.724,0-33.968-15.232-33.968-33.981
        c0-18.748,15.232-33.992,33.968-33.992c18.748,0,34.004,15.245,34.004,33.992C128.402,342.937,113.145,358.169,94.397,358.169z
         M295.183,226.433c0,3.133-2.523,5.667-5.667,5.667h-87.964c-1.937,0-3.742-1.016-4.783-2.666
        c-1.052-1.662-1.148-3.731-0.287-5.476c4.149-8.537,11.67-23.327,15.269-26.4c11.981-7.616,36.001-11.227,72.002-11.227
        c1.961,0,3.922,0.024,5.906,0.06c3.061,0.072,5.512,2.595,5.512,5.667L295.183,226.433L295.183,226.433z M306.53,226.433V193.66
        c0-1.614,0.705-3.157,1.901-4.233c1.208-1.076,2.81-1.614,4.424-1.399c39.863,4.687,70.519,17.875,82.058,35.272
        c1.16,1.746,1.244,3.97,0.263,5.811c-0.968,1.841-2.905,2.989-4.998,2.989h-78.004C309.077,232.1,306.53,229.565,306.53,226.433z
         M414.067,358.169c-18.724,0-33.98-15.232-33.98-33.981c0-18.748,15.244-33.992,33.98-33.992c18.736,0,33.98,15.245,33.98,33.992
        C448.047,342.937,432.791,358.169,414.067,358.169z"/>
    </symbol>
    
    <symbol id="tent" viewBox="0 0 548.317 548.317">
        <path d="M358.117,103.434c-2.065-3.309-8.491-6.187-12.393-6.187H235.755c-3.902,0-4.036,2.936-2.104,6.321l194.406,337.594
            c1.932,3.386,6.521,3.605,10.241,2.458l106.039-33.517c3.729-1.147,5.077-5.565,3.012-8.874L358.117,103.434z"/>
        <path d="M94.536,441.229l93.808-200.239v193.726c0,17.337,18.379,16.343,22.281,16.343h182.816c3.901,0,5.488-6.282,3.557-9.668
            L208.12,106.599c-1.932-3.385-5.059-3.385-6.99,0l-47.296,83.05c-1.932,3.385-6.254,7.669-9.667,9.562
            c-47.841,26.545-112.359,61.994-140.951,74.54c-4.284,1.884-4.045,7.286-0.708,10.557c6.359,6.216,19.871,20.436,32.35,37.562
            c7.258,9.964,13.607,21.076,18.81,32.102c1.664,3.528,1.348,9.17-0.583,12.564l-40.622,74.855
            c-1.912,3.386-0.315,9.668,3.586,9.668h68.229C88.177,451.06,92.767,444.71,94.536,441.229z M39.982,286.958
            c-1.75-1.55-1.549-3.615,0.526-4.705c20.129-10.538,115.362-60.521,141.841-76.71c1.999-1.224,2.725-0.574,1.664,1.511
            l-90.27,177.384c-1.062,2.085-2.276,1.913-2.792-0.373C87.556,369.07,73.776,316.85,39.982,286.958z"/>
    </symbol>
    
    <symbol id="vespa" viewBox="0 0 45.001 45.001">
       <path d="M22.039,18.379h16.272c0.188,0,0.362-0.11,0.443-0.282c0.493-1.042,0.936-2.119,0.462-2.819
                c-0.454-0.677-1.562-0.954-3.829-0.954c-1.442,0-3.265,0.115-5.191,0.237c-2.394,0.151-5.105,0.323-7.772,0.323
                c-0.177,0-0.34,0.094-0.427,0.247c-0.042,0.074-0.415,0.772-0.461,2.436c-0.005,0.143,0.002,0.265,0.014,0.375
                C21.578,18.19,21.788,18.379,22.039,18.379z"/>
        <path d="M43.447,25.307l0.294-0.102c0.163-0.059,0.284-0.196,0.319-0.367l0.309-1.502c0.036-0.171-0.023-0.349-0.154-0.466
            l-1.633-1.457c-0.088-0.078-0.201-0.123-0.317-0.125l-1.986-0.04c-0.396-0.339-1.556-1.335-2.079-1.772
            c-0.088-0.074-0.2-0.114-0.315-0.114H22.852c-0.16,0-0.309,0.077-0.401,0.208c-0.092,0.13-0.115,0.297-0.062,0.448
            c0.125,0.352,0.38,0.652,0.732,1.069c0.376,0.444,0.892,1.052,1.493,2.013c0.429,0.688,0.509,1.392,0.238,2.097
            c-0.427,1.104-1.607,1.964-2.298,2.16c-0.551,0.158-1.493,0.251-2.52,0.251c-1.626,0-3.317-0.229-4.76-0.646
            c-2.678-0.775-3.188-6.793-2.903-7.834c0.158-0.581,0.862-2.509,1.543-4.373c0.192-0.527,0.358-0.98,0.504-1.382
            c0.12,0.084,0.207,0.141,0.213,0.145c0.082,0.052,0.172,0.077,0.263,0.077c0.163,0,0.322-0.081,0.415-0.228
            c0.146-0.23,0.078-0.533-0.151-0.679c-0.002-0.001-0.179-0.115-0.392-0.279c0.103-0.289,0.19-0.534,0.262-0.74
            c0.009,0.001,0.018,0.003,0.026,0.005c0.051,0.156,0.171,0.286,0.342,0.328c0.712,0.174,1.377,0.413,1.384,0.416
            c0.055,0.02,0.111,0.03,0.167,0.03c0.202,0,0.39-0.125,0.463-0.325c0.092-0.255-0.04-0.538-0.295-0.629
            c-0.029-0.01-0.719-0.259-1.485-0.446c-0.158-0.04-0.312,0.01-0.428,0.108c0.125-0.38,0.161-0.542,0.161-0.634
            c0-0.917-3.423-2.179-4.489-2.216c-0.314,0-0.589,0.131-0.796,0.378c-0.767,0.915-0.357,3.492-0.267,4
            c0.037,0.213,0.209,0.375,0.424,0.402l1.289,0.159c-0.433,1.377-2.355,5.65-2.764,6.287c-0.097,0.14-0.744,0.255-1.055,0.31
            c-0.665,0.118-1.294,0.229-1.533,0.707c-0.244,0.489-0.225,1.321-0.192,1.778c-0.074-0.002-0.146-0.015-0.22-0.015
            c-2.277,0-4.398,1.227-5.535,3.194c-0.25,0.433-0.292,0.85-0.126,1.242c0.174,0.407,0.593,0.756,1.154,1.069
            c-0.747,0.937-1.197,2.118-1.197,3.406c0,3.016,2.453,5.471,5.469,5.471c3.016,0,5.469-2.455,5.469-5.471
            c0-0.146-0.011-0.292-0.022-0.438c0.49,0.18,1.128,0.479,1.307,0.573c0.179,0.095,0.327-0.01,0.358-0.157
            c0.032-0.148,0.093-0.546,0.108-0.83c1.453,1.181,3.012,1.265,5.307,1.265h12.681c0.455,2.86,2.931,5.056,5.917,5.056
            c3.308,0,6-2.69,6-6c0-0.177-0.012-0.351-0.026-0.522c1.742-0.246,2.026-0.535,2.162-0.676c0.187-0.19,0.219-0.395,0.214-0.529
            C44.961,27.877,43.992,26.18,43.447,25.307z M8.535,31.222c0,1.659-1.35,3.01-3.01,3.01c-1.66,0-3.01-1.351-3.01-3.01
            c0-1,0.495-1.88,1.247-2.429c0.904,0.269,1.896,0.519,2.915,0.771c0.525,0.13,1.055,0.264,1.574,0.397
            C8.429,30.349,8.535,30.771,8.535,31.222z M40.189,30.69c0,1.953-1.589,3.541-3.541,3.541s-3.54-1.588-3.54-3.541
            c2.591-0.019,5.394-0.179,7.052-0.286C40.168,30.5,40.189,30.594,40.189,30.69z"/> 
    </symbol>
</svg>