<svg xmlns="http://www.w3.org/2000/svg" style="display: none;">
  
    <symbol id="search" viewBox="0 0 475.084 475.084" style="enable-background:new 0 0 475.084 475.084;" xml:space="preserve" x="0px" y="0px">
        <path d="M464.524,412.846l-97.929-97.925c23.6-34.068,35.406-72.047,35.406-113.917c0-27.218-5.284-53.249-15.852-78.087   c-10.561-24.842-24.838-46.254-42.825-64.241c-17.987-17.987-39.396-32.264-64.233-42.826   C254.246,5.285,228.217,0.003,200.999,0.003c-27.216,0-53.247,5.282-78.085,15.847C98.072,26.412,76.66,40.689,58.673,58.676   c-17.989,17.987-32.264,39.403-42.827,64.241C5.282,147.758,0,173.786,0,201.004c0,27.216,5.282,53.238,15.846,78.083   c10.562,24.838,24.838,46.247,42.827,64.234c17.987,17.993,39.403,32.264,64.241,42.832c24.841,10.563,50.869,15.844,78.085,15.844   c41.879,0,79.852-11.807,113.922-35.405l97.929,97.641c6.852,7.231,15.406,10.849,25.693,10.849   c9.897,0,18.467-3.617,25.694-10.849c7.23-7.23,10.848-15.796,10.848-25.693C475.088,428.458,471.567,419.889,464.524,412.846z    M291.363,291.358c-25.029,25.033-55.148,37.549-90.364,37.549c-35.21,0-65.329-12.519-90.36-37.549   c-25.031-25.029-37.546-55.144-37.546-90.36c0-35.21,12.518-65.334,37.546-90.36c25.026-25.032,55.15-37.546,90.36-37.546   c35.212,0,65.331,12.519,90.364,37.546c25.033,25.026,37.548,55.15,37.548,90.36C328.911,236.214,316.392,266.329,291.363,291.358z   "/>
    </symbol>
  
    <symbol id="star" viewBox="0 0 53.867 53.867">
        <polygon points="26.934,1.318 35.256,18.182 53.867,20.887 40.4,34.013 43.579,52.549 26.934,43.798 
	10.288,52.549 13.467,34.013 0,20.887 18.611,18.182 "/>

    </symbol>

    <symbol id="gear" viewBox="0 0 54 54">
        <path d="M51.22,21h-5.052c-0.812,0-1.481-0.447-1.792-1.197s-0.153-1.54,0.42-2.114l3.572-3.571   c0.525-0.525,0.814-1.224,0.814-1.966c0-0.743-0.289-1.441-0.814-1.967l-4.553-4.553c-1.05-1.05-2.881-1.052-3.933,0l-3.571,3.571   c-0.574,0.573-1.366,0.733-2.114,0.421C33.447,9.313,33,8.644,33,7.832V2.78C33,1.247,31.753,0,30.22,0H23.78   C22.247,0,21,1.247,21,2.78v5.052c0,0.812-0.447,1.481-1.197,1.792c-0.748,0.313-1.54,0.152-2.114-0.421l-3.571-3.571   c-1.052-1.052-2.883-1.05-3.933,0l-4.553,4.553c-0.525,0.525-0.814,1.224-0.814,1.967c0,0.742,0.289,1.44,0.814,1.966l3.572,3.571   c0.573,0.574,0.73,1.364,0.42,2.114S8.644,21,7.832,21H2.78C1.247,21,0,22.247,0,23.78v6.439C0,31.753,1.247,33,2.78,33h5.052   c0.812,0,1.481,0.447,1.792,1.197s0.153,1.54-0.42,2.114l-3.572,3.571c-0.525,0.525-0.814,1.224-0.814,1.966   c0,0.743,0.289,1.441,0.814,1.967l4.553,4.553c1.051,1.051,2.881,1.053,3.933,0l3.571-3.572c0.574-0.573,1.363-0.731,2.114-0.42   c0.75,0.311,1.197,0.98,1.197,1.792v5.052c0,1.533,1.247,2.78,2.78,2.78h6.439c1.533,0,2.78-1.247,2.78-2.78v-5.052   c0-0.812,0.447-1.481,1.197-1.792c0.751-0.312,1.54-0.153,2.114,0.42l3.571,3.572c1.052,1.052,2.883,1.05,3.933,0l4.553-4.553   c0.525-0.525,0.814-1.224,0.814-1.967c0-0.742-0.289-1.44-0.814-1.966l-3.572-3.571c-0.573-0.574-0.73-1.364-0.42-2.114   S45.356,33,46.168,33h5.052c1.533,0,2.78-1.247,2.78-2.78V23.78C54,22.247,52.753,21,51.22,21z M52,30.22   C52,30.65,51.65,31,51.22,31h-5.052c-1.624,0-3.019,0.932-3.64,2.432c-0.622,1.5-0.295,3.146,0.854,4.294l3.572,3.571   c0.305,0.305,0.305,0.8,0,1.104l-4.553,4.553c-0.304,0.304-0.799,0.306-1.104,0l-3.571-3.572c-1.149-1.149-2.794-1.474-4.294-0.854   c-1.5,0.621-2.432,2.016-2.432,3.64v5.052C31,51.65,30.65,52,30.22,52H23.78C23.35,52,23,51.65,23,51.22v-5.052   c0-1.624-0.932-3.019-2.432-3.64c-0.503-0.209-1.021-0.311-1.533-0.311c-1.014,0-1.997,0.4-2.761,1.164l-3.571,3.572   c-0.306,0.306-0.801,0.304-1.104,0l-4.553-4.553c-0.305-0.305-0.305-0.8,0-1.104l3.572-3.571c1.148-1.148,1.476-2.794,0.854-4.294   C10.851,31.932,9.456,31,7.832,31H2.78C2.35,31,2,30.65,2,30.22V23.78C2,23.35,2.35,23,2.78,23h5.052   c1.624,0,3.019-0.932,3.64-2.432c0.622-1.5,0.295-3.146-0.854-4.294l-3.572-3.571c-0.305-0.305-0.305-0.8,0-1.104l4.553-4.553   c0.304-0.305,0.799-0.305,1.104,0l3.571,3.571c1.147,1.147,2.792,1.476,4.294,0.854C22.068,10.851,23,9.456,23,7.832V2.78   C23,2.35,23.35,2,23.78,2h6.439C30.65,2,31,2.35,31,2.78v5.052c0,1.624,0.932,3.019,2.432,3.64   c1.502,0.622,3.146,0.294,4.294-0.854l3.571-3.571c0.306-0.305,0.801-0.305,1.104,0l4.553,4.553c0.305,0.305,0.305,0.8,0,1.104   l-3.572,3.571c-1.148,1.148-1.476,2.794-0.854,4.294c0.621,1.5,2.016,2.432,3.64,2.432h5.052C51.65,23,52,23.35,52,23.78V30.22z" />
        <path d="M27,18c-4.963,0-9,4.037-9,9s4.037,9,9,9s9-4.037,9-9S31.963,18,27,18z M27,34c-3.859,0-7-3.141-7-7s3.141-7,7-7   s7,3.141,7,7S30.859,34,27,34z" />
    </symbol>

    <symbol id="plus" viewBox="0 0 42 42">
        <polygon points="42,20 22,20 22,0 20,0 20,20 0,20 0,22 20,22 20,42 22,42 22,22 42,22 " />
    </symbol>

    <symbol id="calendar" viewBox="0 0 32 32">
        <path d="M29.334,3H25V1c0-0.553-0.447-1-1-1s-1,0.447-1,1v2h-6V1c0-0.553-0.448-1-1-1s-1,0.447-1,1v2H9V1    c0-0.553-0.448-1-1-1S7,0.447,7,1v2H2.667C1.194,3,0,4.193,0,5.666v23.667C0,30.806,1.194,32,2.667,32h26.667    C30.807,32,32,30.806,32,29.333V5.666C32,4.193,30.807,3,29.334,3z M30,29.333C30,29.701,29.701,30,29.334,30H2.667    C2.299,30,2,29.701,2,29.333V5.666C2,5.299,2.299,5,2.667,5H7v2c0,0.553,0.448,1,1,1s1-0.447,1-1V5h6v2c0,0.553,0.448,1,1,1    s1-0.447,1-1V5h6v2c0,0.553,0.447,1,1,1s1-0.447,1-1V5h4.334C29.701,5,30,5.299,30,5.666V29.333z"/>
        <rect x="7" y="12" width="4" height="3"/>
        <rect x="7" y="17" width="4" height="3"/>
        <rect x="7" y="22" width="4" height="3"/>
        <rect x="14" y="22" width="4" height="3"/>
        <rect x="14" y="17" width="4" height="3"/>
        <rect x="14" y="12" width="4" height="3"/>
        <rect x="21" y="22" width="4" height="3"/>
        <rect x="21" y="17" width="4" height="3"/>
        <rect x="21" y="12" width="4" height="3"/>
    </symbol>

    <symbol id="phone" viewBox="0 0 473.806 473.806">
        <path d="M374.456,293.506c-9.7-10.1-21.4-15.5-33.8-15.5c-12.3,0-24.1,5.3-34.2,15.4l-31.6,31.5c-2.6-1.4-5.2-2.7-7.7-4    c-3.6-1.8-7-3.5-9.9-5.3c-29.6-18.8-56.5-43.3-82.3-75c-12.5-15.8-20.9-29.1-27-42.6c8.2-7.5,15.8-15.3,23.2-22.8    c2.8-2.8,5.6-5.7,8.4-8.5c21-21,21-48.2,0-69.2l-27.3-27.3c-3.1-3.1-6.3-6.3-9.3-9.5c-6-6.2-12.3-12.6-18.8-18.6    c-9.7-9.6-21.3-14.7-33.5-14.7s-24,5.1-34,14.7c-0.1,0.1-0.1,0.1-0.2,0.2l-34,34.3c-12.8,12.8-20.1,28.4-21.7,46.5    c-2.4,29.2,6.2,56.4,12.8,74.2c16.2,43.7,40.4,84.2,76.5,127.6c43.8,52.3,96.5,93.6,156.7,122.7c23,10.9,53.7,23.8,88,26    c2.1,0.1,4.3,0.2,6.3,0.2c23.1,0,42.5-8.3,57.7-24.8c0.1-0.2,0.3-0.3,0.4-0.5c5.2-6.3,11.2-12,17.5-18.1c4.3-4.1,8.7-8.4,13-12.9    c9.9-10.3,15.1-22.3,15.1-34.6c0-12.4-5.3-24.3-15.4-34.3L374.456,293.506z M410.256,398.806    C410.156,398.806,410.156,398.906,410.256,398.806c-3.9,4.2-7.9,8-12.2,12.2c-6.5,6.2-13.1,12.7-19.3,20    c-10.1,10.8-22,15.9-37.6,15.9c-1.5,0-3.1,0-4.6-0.1c-29.7-1.9-57.3-13.5-78-23.4c-56.6-27.4-106.3-66.3-147.6-115.6    c-34.1-41.1-56.9-79.1-72-119.9c-9.3-24.9-12.7-44.3-11.2-62.6c1-11.7,5.5-21.4,13.8-29.7l34.1-34.1c4.9-4.6,10.1-7.1,15.2-7.1    c6.3,0,11.4,3.8,14.6,7c0.1,0.1,0.2,0.2,0.3,0.3c6.1,5.7,11.9,11.6,18,17.9c3.1,3.2,6.3,6.4,9.5,9.7l27.3,27.3    c10.6,10.6,10.6,20.4,0,31c-2.9,2.9-5.7,5.8-8.6,8.6c-8.4,8.6-16.4,16.6-25.1,24.4c-0.2,0.2-0.4,0.3-0.5,0.5    c-8.6,8.6-7,17-5.2,22.7c0.1,0.3,0.2,0.6,0.3,0.9c7.1,17.2,17.1,33.4,32.3,52.7l0.1,0.1c27.6,34,56.7,60.5,88.8,80.8    c4.1,2.6,8.3,4.7,12.3,6.7c3.6,1.8,7,3.5,9.9,5.3c0.4,0.2,0.8,0.5,1.2,0.7c3.4,1.7,6.6,2.5,9.9,2.5c8.3,0,13.5-5.2,15.2-6.9    l34.2-34.2c3.4-3.4,8.8-7.5,15.1-7.5c6.2,0,11.3,3.9,14.4,7.3c0.1,0.1,0.1,0.1,0.2,0.2l55.1,55.1    C420.456,377.706,420.456,388.206,410.256,398.806z"/>
        <path d="M256.056,112.706c26.2,4.4,50,16.8,69,35.8s31.3,42.8,35.8,69c1.1,6.6,6.8,11.2,13.3,11.2c0.8,0,1.5-0.1,2.3-0.2    c7.4-1.2,12.3-8.2,11.1-15.6c-5.4-31.7-20.4-60.6-43.3-83.5s-51.8-37.9-83.5-43.3c-7.4-1.2-14.3,3.7-15.6,11    S248.656,111.506,256.056,112.706z"/>
        <path d="M473.256,209.006c-8.9-52.2-33.5-99.7-71.3-137.5s-85.3-62.4-137.5-71.3c-7.3-1.3-14.2,3.7-15.5,11    c-1.2,7.4,3.7,14.3,11.1,15.6c46.6,7.9,89.1,30,122.9,63.7c33.8,33.8,55.8,76.3,63.7,122.9c1.1,6.6,6.8,11.2,13.3,11.2    c0.8,0,1.5-0.1,2.3-0.2C469.556,223.306,474.556,216.306,473.256,209.006z"/>
    </symbol>

    <symbol id="arrow" viewBox="0 0 386.257 386.257">
        <polygon points="0,96.879 193.129,289.379 386.257,96.879 "/>
    </symbol>
  
</svg>